<?xml version="1.0" encoding="UTF-8" standalone="no"?>
<svg
   viewBox="0 0 448 512"
   version="1.1"
   id="svg1"
   sodipodi:docname="youtube-brands-solid.svg"
   inkscape:version="1.4.2 (f4327f4, 2025-05-13)"
   xmlns:inkscape="http://www.inkscape.org/namespaces/inkscape"
   xmlns:sodipodi="http://sodipodi.sourceforge.net/DTD/sodipodi-0.dtd"
   xmlns="http://www.w3.org/2000/svg"
   xmlns:svg="http://www.w3.org/2000/svg">
  <defs
     id="defs1" />
  <sodipodi:namedview
     id="namedview1"
     pagecolor="#ffffff"
     bordercolor="#000000"
     borderopacity="0.25"
     inkscape:showpageshadow="2"
     inkscape:pageopacity="0.0"
     inkscape:pagecheckerboard="0"
     inkscape:deskcolor="#d1d1d1"
     inkscape:zoom="1.5761719"
     inkscape:cx="223.96035"
     inkscape:cy="256"
     inkscape:window-width="2560"
     inkscape:window-height="1009"
     inkscape:window-x="-8"
     inkscape:window-y="-8"
     inkscape:window-maximized="1"
     inkscape:current-layer="layer1" />
  <!--!Font Awesome Free 6.7.1 by @fontawesome - https://fontawesome.com License - https://fontawesome.com/license/free Copyright 2024 Fonticons, Inc.-->
  <g
     inkscape:groupmode="layer"
     id="layer1"
     inkscape:label="Layer 1">
    <rect
       style="fill:#ffffff;fill-opacity:1"
       id="rect1"
       width="393.35812"
       height="341.33334"
       x="23.474598"
       y="76.76828" />
  </g>
  <path
     fill="#ff0000"
     d="M282 256.2l-95.2-54.1V310.3L282 256.2zM384 32H64C28.7 32 0 60.7 0 96V416c0 35.3 28.7 64 64 64H384c35.3 0 64-28.7 64-64V96c0-35.3-28.7-64-64-64zm14.4 136.1c7.6 28.6 7.6 88.2 7.6 88.2s0 59.6-7.6 88.1c-4.2 15.8-16.5 27.7-32.2 31.9C337.9 384 224 384 224 384s-113.9 0-142.2-7.6c-15.7-4.2-28-16.1-32.2-31.9C42 315.9 42 256.3 42 256.3s0-59.7 7.6-88.2c4.2-15.8 16.5-28.2 32.2-32.4C110.1 128 224 128 224 128s113.9 0 142.2 7.7c15.7 4.2 28 16.6 32.2 32.4z"
     id="path1" />
</svg>
