<?xml version="1.0" encoding="UTF-8" standalone="no"?>
<!-- Created with Inkscape (http://www.inkscape.org/) -->

<svg
   width="201.567mm"
   height="46mm"
   viewBox="0 0 201.567 45.999999"
   version="1.1"
   id="svg1"
   xml:space="preserve"
   sodipodi:docname="logo2_exp.svg"
   inkscape:version="1.3.2 (091e20e, 2023-11-25, custom)"
   xmlns:inkscape="http://www.inkscape.org/namespaces/inkscape"
   xmlns:sodipodi="http://sodipodi.sourceforge.net/DTD/sodipodi-0.dtd"
   xmlns:xlink="http://www.w3.org/1999/xlink"
   xmlns="http://www.w3.org/2000/svg"
   xmlns:svg="http://www.w3.org/2000/svg"><sodipodi:namedview
     id="namedview1"
     pagecolor="#ffffff"
     bordercolor="#000000"
     borderopacity="0.25"
     inkscape:showpageshadow="2"
     inkscape:pageopacity="0.0"
     inkscape:pagecheckerboard="true"
     inkscape:deskcolor="#d1d1d1"
     inkscape:document-units="mm"
     inkscape:zoom="1.1659052"
     inkscape:cx="377.81802"
     inkscape:cy="-144.5229"
     inkscape:window-width="2560"
     inkscape:window-height="1494"
     inkscape:window-x="-11"
     inkscape:window-y="-11"
     inkscape:window-maximized="1"
     inkscape:current-layer="svg1" /><defs
     id="defs1"><linearGradient
       id="linearGradient20"><stop
         style="stop-color:#d4b48d;stop-opacity:1;"
         offset="0.28817734"
         id="stop21" /><stop
         style="stop-color:#ffe43a;stop-opacity:1;"
         offset="0.65394092"
         id="stop23" /><stop
         style="stop-color:#fb9b1d;stop-opacity:1;"
         offset="1"
         id="stop22" /></linearGradient><linearGradient
       xlink:href="#linearGradient20"
       id="linearGradient33"
       x1="106.17278"
       y1="167.69016"
       x2="106.15033"
       y2="142.39844"
       gradientUnits="userSpaceOnUse" /></defs><g
     id="layer3"
     transform="translate(-4.2333335,-123.84462)"><path
       style="display:inline;fill:#919498;fill-opacity:1;stroke-width:0.280194;stroke-linejoin:bevel;paint-order:markers fill stroke"
       d="M 5.1537247,167.33029 C 27.937398,151.3606 61.347707,143.44354 100.53555,143.0876 c 48.05859,-0.0811 80.41595,9.78769 103.90744,25.29123 -21.82155,-13.15398 -56.64502,-19.97369 -103.84667,-20.76301 -39.190528,0.0614 -71.219188,6.31283 -95.4425953,19.71447 z"
       id="path17-8" /><path
       style="display:inline;fill:url(#linearGradient33);stroke-width:0.280194;stroke-linejoin:bevel;paint-order:markers fill stroke"
       d="M 5.3952503,166.64162 C 28.178923,150.67193 61.589232,142.75487 100.77708,142.39893 c 48.05859,-0.0811 80.41595,9.78769 103.90744,25.29123 -21.82155,-13.15398 -56.64502,-19.97369 -103.84667,-20.76301 -39.190533,0.0614 -71.219193,6.31283 -95.4425997,19.71447 z"
       id="path17" /></g><g
     id="layer2"
     style="display:inline;fill:#ffffff;fill-opacity:1"
     transform="translate(-4.2333335,-123.84462)"><path
       style="display:inline;fill:#ffffff;fill-opacity:1;stroke-width:0.280194;stroke-linejoin:bevel;paint-order:markers fill stroke"
       d="m 36.669905,124.92033 h 23.857011 v 2.86351 h -21.09598 l 0.08628,8.14795 h 15.703349 v 2.9393 H 39.430936 v 21.19043 h -2.761031 z"
       id="path3" /><path
       style="fill:#ffffff;fill-opacity:1;stroke-width:0.280194;stroke-linejoin:bevel;paint-order:markers fill stroke"
       d="m 57.582539,135.93179 h 2.761028 c 0,0 -0.109387,9.15068 -0.109387,13.01108 0.441355,4.97355 4.722541,8.42249 9.137744,8.51056 3.584227,0.0715 8.224271,-2.50102 9.078254,-5.64824 0,-1.67738 -0.07365,-15.8734 -0.07365,-15.8734 h 3.008333 v 24.12973 h -2.959018 v -4.255 c -2.817788,3.00469 -6.02611,4.24549 -9.064323,4.255 -6.171928,0.0193 -11.64186,-5.06642 -11.709815,-10.93567 z"
       id="path5" /><path
       style="display:inline;fill:#ffffff;fill-opacity:1;stroke-width:0.280194;stroke-linejoin:bevel;paint-order:markers fill stroke"
       d="m 82.71221,137.12388 h 2.615427 v 3.95819 c 2.34911,-2.90138 5.734046,-3.95819 9.286116,-3.95819 v 2.68553 c -9.081487,0.13472 -9.33825,7.59092 -9.345435,7.9697 v 12.28241 h -2.57768 z"
       id="path7" /><path
       style="fill:#ffffff;fill-opacity:1;stroke-width:0.280194;stroke-linejoin:bevel;paint-order:markers fill stroke"
       d="m 96.776197,135.93179 h 2.66396 v 24.12973 h -2.750243 z"
       id="path8" /><ellipse
       style="fill:#ffffff;fill-opacity:1;stroke-width:0.266712;stroke-linejoin:bevel;paint-order:markers fill stroke"
       id="path9"
       ry="1.8173187"
       rx="1.8469782"
       cy="126.72028"
       cx="98.065033" /><path
       style="display:inline;fill:#ffffff;fill-opacity:1;stroke-width:0.280194;stroke-linejoin:bevel;paint-order:markers fill stroke"
       d="m 101.66192,135.93179 h 23.72759 l -18.82029,21.27426 h 66.42657 v 2.85547 h -72.21871 l 19.22519,-21.60569 h -18.34035 z"
       id="path10" /><path
       id="path11"
       style="display:inline;fill:#ffffff;fill-opacity:1;stroke-width:0.350976;stroke-linejoin:bevel;paint-order:markers fill stroke"
       d="m 136.91102,135.9556 c -3.18035,-0.21059 -6.30242,0.98135 -8.63771,3.29769 -4.42833,4.39226 -4.99696,11.6749 -1.27914,16.76406 h 3.0046 c -2.71894,-2.66809 -3.76479,-6.59012 -2.61171,-10.5978 1.15291,-4.00759 4.7783,-7.65064 8.85581,-7.64104 4.07748,0.01 7.62941,3.66963 8.7643,7.68258 1.11919,3.95965 -0.23953,7.81469 -2.49961,10.55626 h 2.83054 c 3.66441,-5.13339 3.1491,-12.5191 -1.32518,-16.85812 -1.95793,-1.89889 -4.46272,-3.02876 -7.1019,-3.20355 z" /><path
       id="path5-4"
       style="fill:#ffffff;fill-opacity:1;stroke-width:0.280194;stroke-linejoin:bevel;paint-order:markers fill stroke"
       d="m 161.62077,136.0873 c -3.15004,-0.0977 -6.51016,0.954 -9.44645,4.08506 v -4.24057 h -2.95899 v 20.08556 h 2.9993 c -0.009,-3.54679 -0.0217,-10.64596 -0.0217,-11.84876 2.40156,-4.28191 5.93293,-5.8014 9.65534,-5.53639 4.253,0.30278 8.0913,3.59857 8.51771,8.40382 0,2.27998 -0.0334,6.1122 -0.0646,8.98133 h 2.69441 l -0.0475,-9.16426 c -0.0666,-5.74774 -5.31377,-10.57923 -11.32748,-10.76579 z" /></g></svg>
